<svg width="24" height="26" viewBox="0 0 24 26" fill="none" xmlns="http://www.w3.org/2000/svg">
<path d="M1.404 26C1.188 26 1.008 25.928 0.864 25.784C0.72 25.64 0.648 25.46 0.648 25.244C0.648 25.172 0.66 25.1 0.684 25.028C0.708 24.956 0.732 24.884 0.756 24.812L8.82 13.148L1.26 1.988C1.188 1.844 1.152 1.7 1.152 1.556C1.152 1.34 1.224 1.16 1.368 1.016C1.512 0.871999 1.68 0.799998 1.872 0.799998H5.58C5.868 0.799998 6.096 0.871999 6.264 1.016C6.432 1.16 6.576 1.316 6.696 1.484L11.988 9.26L17.316 1.484C17.412 1.316 17.544 1.16 17.712 1.016C17.904 0.871999 18.144 0.799998 18.432 0.799998H21.924C22.14 0.799998 22.32 0.871999 22.464 1.016C22.608 1.16 22.68 1.34 22.68 1.556C22.68 1.7 22.632 1.844 22.536 1.988L15.012 13.148L23.076 24.812C23.124 24.884 23.16 24.956 23.184 25.028C23.208 25.1 23.22 25.172 23.22 25.244C23.22 25.46 23.136 25.64 22.968 25.784C22.824 25.928 22.656 26 22.464 26H18.648C18.36 26 18.132 25.928 17.964 25.784C17.796 25.64 17.664 25.496 17.568 25.352L11.808 17.216L6.156 25.352C6.06 25.496 5.928 25.64 5.76 25.784C5.592 25.928 5.352 26 5.04 26H1.404Z" fill="#DA75AF"/>
</svg>
