<svg width="388" height="536" viewBox="0 0 388 536" fill="none" xmlns="http://www.w3.org/2000/svg">
<g clip-path="url(#clip0_158_100)">
<path d="M203 478.26L282.263 582C282.263 582 362.997 577.885 412 537.92L236.729 449L233.134 460.273L281.064 515.5L217.986 471.471L203 478.26Z" fill="url(#paint0_linear_158_100)"/>
<path d="M19.1409 412.129L223.304 295.336V19.7781L19.1409 136.571V412.129Z" fill="white"/>
<path opacity="0.38" d="M148.869 127.271V208.916L206.485 172.859V93.5154L148.869 127.271Z" fill="#3C9FD7"/>
<path opacity="0.18" d="M165.088 200.931C166.887 208.471 171.416 215.045 176.022 221.289C180.629 227.534 185.467 233.779 188.119 241.067C191.215 249.632 191.041 258.989 190.828 268.134L190.17 296.013C190.217 297.252 190.013 298.488 189.57 299.647C188.709 301.074 187.461 302.227 185.97 302.973C176.893 308.676 167.429 314.573 156.785 315.849C153.437 316.274 149.875 316.274 146.914 317.898C145.245 318.81 143.888 320.204 143.022 321.897C142.155 323.59 141.819 325.504 142.057 327.391C142.378 329.267 143.332 330.978 144.762 332.237C146.192 333.496 148.01 334.229 149.914 334.312C154.037 334.312 157.327 331.122 160.636 328.647C166.17 324.907 172.195 321.947 178.538 319.851L212.214 306.936C215.988 305.486 220.052 303.785 221.891 300.208C222.572 298.758 222.998 297.201 223.149 295.607C225.355 278.497 216.685 262.044 208.285 246.945L189.435 212.879C183.454 202.149 178.229 189.447 170.739 179.761C164.178 183.628 163.501 194.319 165.088 200.931Z" fill="#3C9FD7"/>
<path d="M238.787 253.479L224.252 269.217L223.401 268.869C219.82 267.361 206.079 261.541 203.04 259.395C200.002 257.249 179.022 212.995 174.9 204.315L174.184 202.807L185.583 195.808L213.627 242.208L238.787 253.479Z" fill="#3C9FD7"/>
<path d="M231.916 259.55L223.401 268.772C219.82 267.264 206.079 261.445 203.04 259.299C200.002 257.153 179.022 212.899 174.9 204.218L178.771 201.879L206.814 248.279L231.916 259.55Z" fill="url(#paint1_linear_158_100)"/>
<path d="M202.595 225.678C202.604 226.364 202.805 227.034 203.176 227.611C204.13 229.55 204.639 231.677 204.666 233.837C204.459 235.581 204.665 237.349 205.266 238.999C206.146 240.235 207.249 241.297 208.517 242.131C209.937 243.34 211.057 244.862 211.788 246.577C212.408 248.027 213.22 249.961 214.807 249.806C215.348 249.729 215.847 249.47 216.22 249.072C217.262 247.932 218.001 246.549 218.368 245.05C220.691 237.897 222.878 228.269 221.078 220.787C219.627 214.832 213.182 214.871 209.582 218.853C208.515 220.437 207.209 221.845 205.711 223.03C204.685 223.706 202.808 224.093 202.595 225.678Z" fill="#FFBBAB"/>
<path d="M176.835 330.136C173.747 331.354 170.476 332.046 167.158 332.185C166.298 332.244 165.463 332.502 164.72 332.939C164.349 333.16 164.056 333.491 163.882 333.886C163.709 334.282 163.663 334.721 163.752 335.143C164.004 335.897 164.817 336.419 164.952 337.193C165.016 337.565 164.947 337.948 164.759 338.275C164.042 339.706 162.243 340.112 160.888 340.963C159.885 341.56 159.125 342.491 158.74 343.592C158.551 344.139 158.48 344.719 158.53 345.295C158.58 345.871 158.75 346.43 159.03 346.937C159.624 347.833 160.493 348.511 161.507 348.87C163.116 349.408 164.804 349.67 166.5 349.643C168.112 349.938 169.769 349.88 171.356 349.473C172.944 349.066 174.423 348.319 175.693 347.285C176.492 346.716 177.231 346.068 177.9 345.351C179.7 343.302 180.145 340.363 181.771 338.121C182.453 337.417 182.945 336.553 183.203 335.607C183.248 334.998 183.121 334.388 182.835 333.848C182.196 332.786 181.32 331.884 180.277 331.214C179.233 330.543 178.049 330.122 176.816 329.981" fill="#FFBBAB"/>
<path d="M216.491 457.852C216.491 457.852 200.079 459.205 199.692 466.146C199.305 473.087 216.588 479.022 226.168 476.837C235.748 474.653 230.523 460.23 230.523 460.23L216.491 457.852Z" fill="#3C9FD7"/>
<path d="M241.013 438.422C241.013 438.422 233.6 435.077 233.6 442.289C233.6 449.5 236.097 454.121 242.019 457.543C247.941 460.965 254.27 458.413 254.618 456.692C254.967 454.971 255.044 445.092 255.044 445.092L241.013 438.422Z" fill="#3C9FD7"/>
<path d="M230.523 416.034V456.247C230.518 457.815 229.892 459.317 228.782 460.425C227.673 461.533 226.17 462.158 224.6 462.163H222.201C220.912 462.15 219.662 461.723 218.635 460.947C217.607 460.171 216.856 459.086 216.491 457.852C216.358 457.386 216.286 456.905 216.278 456.421L215.736 438.751L215.253 422.646V420.017L215.156 416.034H230.523Z" fill="#FFBBAB"/>
<path d="M230.523 456.247V460.23C230.518 461.797 229.892 463.299 228.782 464.408C227.673 465.516 226.17 466.141 224.6 466.146H222.201C220.678 466.09 219.238 465.439 218.191 464.332C217.145 463.225 216.576 461.752 216.607 460.23L216.491 457.852C216.856 459.086 217.607 460.171 218.635 460.947C219.662 461.723 220.912 462.15 222.201 462.163H224.6C226.17 462.158 227.673 461.533 228.782 460.425C229.892 459.317 230.518 457.815 230.523 456.247Z" fill="white"/>
<path d="M255.044 439.079V443.062C255.039 444.629 254.413 446.131 253.304 447.24C252.194 448.348 250.691 448.973 249.122 448.978H246.722C245.199 448.923 243.759 448.271 242.712 447.164C241.666 446.057 241.097 444.584 241.129 443.062L241.012 440.684C241.379 441.936 242.144 443.034 243.192 443.812C244.24 444.59 245.513 445.006 246.819 444.995H249.044C249.828 445.003 250.605 444.856 251.331 444.562C252.058 444.268 252.719 443.834 253.276 443.284C253.834 442.735 254.277 442.08 254.581 441.358C254.884 440.637 255.041 439.862 255.044 439.079Z" fill="white"/>
<path d="M239.619 399.601L240.8 439.234C240.85 440.964 241.574 442.606 242.817 443.812C244.06 445.018 245.725 445.692 247.457 445.691H248.386C250.145 445.691 251.833 444.996 253.08 443.757C254.328 442.518 255.034 440.836 255.044 439.079V399.601H239.619Z" fill="#FFBBAB"/>
<path d="M265.921 394.922C264.798 401.515 259.495 404.086 255.16 408.301C251.87 411.51 249.76 414.584 245.483 416.73C241.364 418.865 236.867 420.179 232.245 420.597C224.44 421.134 216.741 418.554 210.84 413.424C209.082 412.135 207.667 410.435 206.718 408.475C206.128 406.843 205.814 405.124 205.789 403.39C204.279 378.605 207.976 353.819 207.84 328.995C207.904 322.927 207.431 316.865 206.427 310.88C205.189 304.133 202.866 297.617 201.473 290.889C199.731 282.518 198.299 273.489 199.537 264.925C200.989 255.258 209.021 250.927 217.111 247.138L219.53 246.017C220.922 245.292 222.416 244.784 223.962 244.509C225.367 244.367 226.787 244.498 228.142 244.895C233.015 246.327 237.34 249.198 240.548 253.131C243.724 257.065 246.366 261.401 248.406 266.027C250.728 270.569 252.172 275.508 252.663 280.585C252.663 281.087 252.663 281.59 252.663 282.112C252.663 286.365 251.328 290.251 250.728 294.466C250.089 299.28 249.47 304.133 248.793 308.927C247.966 313.772 247.745 318.702 248.135 323.601C248.878 328.15 250.117 332.604 251.831 336.883C257.492 353.069 261.949 369.651 265.166 386.493C265.914 389.236 266.169 392.09 265.921 394.922Z" fill="#3C9FD7"/>
<path d="M265.921 394.922C264.798 401.515 259.495 404.086 255.16 408.301C251.87 411.51 249.76 414.584 245.483 416.73C241.364 418.866 236.867 420.179 232.245 420.597C231.775 420.314 231.351 419.962 230.987 419.553C229.698 417.783 229.106 415.602 229.323 413.424C229.458 404.898 232.613 396.739 233.968 388.291C235.458 378.933 234.703 369.383 233.968 359.929C232.768 344.965 231.561 330.007 230.349 315.056C230.225 311.626 229.626 308.23 228.568 304.964C227.188 301.928 225.57 299.006 223.73 296.225C218.64 287.255 219.743 278.613 217.498 269.159C215.562 261.213 213.627 255.219 217.207 247.138L219.627 246.017C221.019 245.292 222.513 244.784 224.059 244.509C225.464 244.367 226.883 244.498 228.239 244.895C233.112 246.327 237.436 249.198 240.645 253.131C243.821 257.065 246.463 261.401 248.502 266.027C250.824 270.569 252.269 275.508 252.76 280.585C252.76 281.087 252.76 281.59 252.76 282.112C252.76 286.365 251.425 290.251 250.825 294.466C250.186 299.28 249.567 304.133 248.889 308.927C248.063 313.772 247.841 318.702 248.231 323.601C248.974 328.15 250.214 332.604 251.928 336.883C257.589 353.069 262.046 369.651 265.263 386.493C265.978 389.242 266.201 392.095 265.921 394.922Z" fill="url(#paint2_linear_158_100)"/>
<path d="M221.775 261.213C221.775 261.213 215.253 307.129 211.808 315.346C208.363 323.563 185.061 340.015 185.061 340.015L177.319 332.997L173.719 329.73C173.719 329.73 191.564 314.65 196.015 312.33C200.466 310.01 203.215 276.351 203.176 265.292C203.137 254.233 214.401 254.833 214.401 254.833C222.801 251.778 221.775 261.213 221.775 261.213Z" fill="#3C9FD7"/>
<path d="M286.997 298.971C286.593 301.063 285.736 303.042 284.485 304.769C283.235 306.495 281.622 307.928 279.759 308.966C275.564 311.685 270.627 313.036 265.63 312.833C260.602 312.603 255.86 310.426 252.412 306.762C251.295 305.331 250.093 303.969 248.812 302.683C245.154 299.454 239.735 299.299 235.264 297.192C228.839 294.118 225.123 287.119 223.807 280.14C222.491 273.161 223.149 265.969 223.13 258.873C223.31 256.304 222.795 253.733 221.639 251.43C219.336 247.563 215.349 246.152 213.898 241.512C213.86 241.353 213.86 241.188 213.898 241.029C213.967 240.902 214.063 240.793 214.181 240.709C214.298 240.625 214.433 240.569 214.575 240.545C215.586 240.296 216.535 239.842 217.362 239.211C217.767 238.881 218.063 238.438 218.215 237.939C218.367 237.44 218.366 236.907 218.214 236.408C218.116 236.173 217.965 235.965 217.771 235.8C217.577 235.635 217.347 235.519 217.1 235.46C216.852 235.402 216.594 235.403 216.347 235.464C216.1 235.524 215.871 235.642 215.678 235.809C216.433 233.721 214.769 231.652 213.743 229.738L213.317 228.945C211.833 225.872 211.55 222.356 212.524 219.085C212.72 218.585 212.831 218.056 212.853 217.519C212.77 216.956 212.621 216.404 212.408 215.876C211.614 213.208 213.356 210.424 215.485 208.626C218.657 206.171 222.51 204.755 226.519 204.572C230.527 204.388 234.494 205.446 237.877 207.601C243.993 211.623 246.044 219.511 247.186 226.722C247.249 227.517 247.515 228.283 247.96 228.945C248.382 229.385 248.889 229.734 249.451 229.97C253.089 231.652 257.192 232.387 260.444 234.803C266.25 239.115 267.063 247.235 267.043 254.388C267.024 261.541 266.811 269.41 271.34 274.939C273.582 277.252 276.002 279.385 278.578 281.319C281.999 284.37 284.595 288.234 286.126 292.552C286.223 292.803 286.3 293.074 286.397 293.325C286.989 295.145 287.193 297.068 286.997 298.971Z" fill="#DA75AF"/>
<path d="M180.338 181.946C180.119 180.002 179.617 178.1 178.848 176.301C178.452 175.407 177.843 174.625 177.073 174.022C176.304 173.418 175.398 173.013 174.435 172.84C171.474 172.55 168.978 175.45 168.629 178.408C168.452 181.389 168.88 184.374 169.887 187.185C170.332 188.925 170.526 191.052 169.055 192.135C168.627 192.349 168.219 192.601 167.836 192.889C166.81 193.894 167.836 195.731 169.074 196.349C170.313 196.968 171.939 196.968 173.177 197.683C174.028 198.279 174.842 198.925 175.616 199.617C177.997 201.376 183.745 200.68 184.151 197.103C184.383 195.17 182.661 191.941 182.216 189.969C181.306 187.398 180.784 184.711 180.338 181.946Z" fill="#FFBBAB"/>
<path d="M221.775 261.213C221.775 261.213 215.253 307.129 211.808 315.346C208.363 323.563 185.061 340.015 185.061 340.015L177.319 332.997C182.583 328.783 199.015 315.713 203.389 313.007C208.614 309.797 214.401 254.755 214.401 254.755C222.801 251.778 221.775 261.213 221.775 261.213Z" fill="url(#paint3_linear_158_100)"/>
<path d="M286.997 298.971C286.593 301.063 285.736 303.042 284.485 304.769C283.235 306.495 281.622 307.928 279.759 308.966C275.563 311.685 270.627 313.036 265.63 312.833C260.602 312.604 255.86 310.426 252.412 306.762C251.295 305.331 250.093 303.969 248.812 302.683C245.154 299.454 239.735 299.299 235.264 297.192C228.839 294.118 225.123 287.119 223.807 280.14C222.491 273.161 223.149 265.969 223.13 258.873C223.31 256.304 222.795 253.733 221.639 251.43C219.336 247.563 215.349 246.152 213.898 241.512C213.86 241.353 213.86 241.188 213.898 241.029C216.452 243.697 220.652 245.031 223.439 247.699C227.31 251.469 228.065 257.365 228.684 262.779C229.303 268.192 230.407 274.147 234.742 277.433L236.948 274.166C237.874 278.203 239.864 281.918 242.713 284.927C245.561 287.936 249.164 290.128 253.147 291.276L257.018 284.065C257.173 289.691 258.508 295.858 262.998 299.222C269.269 303.901 282.159 303.185 285.449 295.703C285.7 295.123 285.991 294.273 286.358 293.325C286.963 295.142 287.18 297.065 286.997 298.971Z" fill="url(#paint4_linear_158_100)"/>
<g opacity="0.43">
<path d="M135.012 223.629C131.296 201.995 121.464 190.994 106.155 188.075C88.737 184.73 69.7703 197.045 59.8225 218.022C54.2931 229.244 52.2701 241.867 54.0164 254.253C55.4098 263.919 62.474 269.429 70.3122 267.129C78.1505 264.828 84.0728 256.205 84.4599 246.674C84.4704 245.103 84.3734 243.534 84.1695 241.976C83.7924 238.896 84.3512 235.775 85.7731 233.017C87.1951 230.258 89.4146 227.991 92.1433 226.509C97.3495 224.073 102.652 226.509 104.239 232.503C105.398 237.399 105.615 242.47 104.878 247.447C103.565 260.698 97.2546 272.953 87.2274 281.725C86.6468 282.228 86.0469 282.673 85.4856 283.214C84.8777 283.786 84.4647 284.533 84.3049 285.352C84.1452 286.171 84.2468 287.019 84.5953 287.777C84.7094 288.089 84.9024 288.368 85.1556 288.584C85.4089 288.8 85.7138 288.948 86.0408 289.012C86.3679 289.076 86.706 289.055 87.0224 288.95C87.3388 288.846 87.6227 288.661 87.8468 288.415C102.304 277.201 110.936 257.617 110.142 238.554C110.168 234.769 109.513 231.01 108.207 227.457C104.975 219.859 96.9624 217.036 90.0531 221.038C86.222 223.466 83.1729 226.946 81.2713 231.06C79.3696 235.175 78.696 239.75 79.3311 244.238C80.3181 251.353 76.6022 258.351 70.6219 260.652C64.9706 262.856 59.7064 259.163 58.8935 252.126C57.8126 244.113 58.5093 235.96 60.9341 228.245C63.359 220.531 67.4526 213.443 72.925 207.485C86.3759 192.27 105.536 189.679 118.503 200.97C124.735 206.383 128.374 214.136 129.825 223.899C130.861 231.055 130.959 238.314 130.115 245.495C130.115 245.939 129.98 246.403 129.961 246.848C129.961 248.781 130.735 249.961 132.089 249.961C132.854 249.87 133.558 249.5 134.065 248.921C134.573 248.343 134.848 247.598 134.838 246.829C135.254 243.447 135.499 240.046 135.573 236.64C135.534 231.594 135.147 226.606 135.012 223.629Z" fill="#3C9FD7"/>
</g>
<g opacity="0.43">
<path d="M122.529 230.395C120.264 211.758 108.381 201.086 94.6205 203.773C82.0987 206.229 71.5315 217.307 67.5253 232.406C66.0563 237.92 65.701 243.67 66.4802 249.323C66.8092 251.643 68.2413 252.551 69.8671 251.565C70.4642 251.131 70.9288 250.539 71.209 249.857C71.4893 249.174 71.5741 248.427 71.4541 247.699C71.3186 245.939 71.067 244.199 71.0864 242.421C71.2605 230.415 77.7634 218.351 86.7823 213.247C95.5108 208.297 103.485 208.684 110.491 215.18C113.929 218.604 116.169 223.045 116.877 227.843C119.264 241.73 117.311 256.014 111.284 268.753C110.742 269.951 110.162 271.111 109.639 272.291C109.194 272.994 109.008 273.831 109.114 274.657C109.22 275.483 109.611 276.246 110.22 276.815C111.478 277.685 112.91 277.027 113.858 275.113C121.309 260.188 124.541 244.779 122.529 230.395Z" fill="#3C9FD7"/>
</g>
<g opacity="0.43">
<path d="M81.2665 177.403C69.0736 182.797 56.842 194.648 48.3651 213.073C47.2426 215.567 46.2942 218.196 45.3266 220.806C44.5331 223.01 44.9395 224.673 46.2942 225.349C47.649 226.026 49.0618 225.04 49.8553 222.72C54.8099 208.394 62.532 197.007 73.196 189.235C90.3047 176.765 107.065 174.58 123.032 185.233C125.005 186.671 126.868 188.255 128.606 189.969C128.84 190.288 129.155 190.538 129.517 190.696C129.88 190.854 130.277 190.913 130.67 190.868C131.063 190.823 131.437 190.675 131.754 190.439C132.071 190.203 132.321 189.888 132.477 189.525C132.985 188.805 133.218 187.927 133.133 187.051C133.047 186.174 132.65 185.358 132.012 184.749C125.532 177.763 116.753 173.337 107.278 172.279C99.6332 171.564 91.9691 172.879 81.2665 177.403Z" fill="#3C9FD7"/>
</g>
<g opacity="0.43">
<path d="M80.8213 161.762C71.5509 165.474 62.4739 172.84 54.2873 182.449C53.6243 183.06 53.1957 183.883 53.0755 184.776C52.9554 185.669 53.1512 186.576 53.6293 187.34C54.597 188.713 55.9711 188.597 57.3452 186.992C62.2173 181.017 68.0046 175.849 74.4926 171.68C86.3371 164.488 98.2978 161.781 110.394 164.217C110.8 164.217 111.207 164.411 111.633 164.469C112.402 164.482 113.149 164.204 113.723 163.692C114.297 163.179 114.656 162.47 114.729 161.704C115.078 159.983 114.4 158.379 112.987 158.166C109.834 157.579 106.647 157.185 103.446 156.987C95.6392 156.842 87.9021 158.475 80.8213 161.762Z" fill="#3C9FD7"/>
</g>
<g opacity="0.43">
<path d="M75.6345 280.411C89.8982 274.398 96.9236 258.119 97.4462 245.205C97.499 242.622 97.3827 240.039 97.0978 237.471C96.9043 235.364 95.6656 234.397 94.2334 234.919C93.4753 235.324 92.8735 235.969 92.5231 236.753C92.1726 237.538 92.0935 238.416 92.2981 239.25C93.5909 248.641 91.0988 258.161 85.3694 265.717C82.2591 269.981 77.8642 273.138 72.8282 274.727C71.6476 275.133 70.4283 275.365 69.2284 275.732C68.4645 275.995 67.8129 276.509 67.3803 277.191C66.9477 277.872 66.76 278.68 66.8479 279.483C66.8479 281.223 68.0091 282.344 69.5574 281.996C71.5315 281.609 73.583 280.971 75.6345 280.411Z" fill="#3C9FD7"/>
</g>
<g opacity="0.43">
<path d="M72.925 317.84C73.4706 317.574 73.9458 317.183 74.3123 316.699C74.6788 316.216 74.9262 315.653 75.0346 315.056C75.3265 314.266 75.2976 313.393 74.9541 312.623C74.6106 311.854 73.9797 311.249 73.196 310.938C57.3065 307.419 48.1716 293.422 46.1007 269.371C45.1912 257.194 45.7566 244.951 47.7845 232.909C48.0449 232.126 47.9882 231.273 47.6264 230.532C47.2646 229.792 46.6265 229.222 45.8491 228.945C44.3589 228.733 42.8493 230.125 42.4816 232.077C40.2758 244.893 39.6583 257.932 40.643 270.899C43.0041 297.695 53.7454 313.993 71.7444 317.975C72.1424 318.055 72.5554 318.008 72.925 317.84Z" fill="#3C9FD7"/>
</g>
<g opacity="0.43">
<path d="M80.5503 315.984C84.4211 314.399 99.9041 307.013 107.646 290.29C108.065 289.519 108.21 288.627 108.055 287.763C107.9 286.899 107.455 286.112 106.794 285.534C105.497 284.703 103.794 285.534 102.923 287.274C95.6656 303.069 79.002 309.411 78.8278 309.469C78.0206 309.869 77.362 310.516 76.9479 311.316C76.5337 312.115 76.3855 313.026 76.5247 313.915C76.7763 315.849 78.1892 316.873 79.6988 316.313L80.5503 315.984Z" fill="#3C9FD7"/>
</g>
<g opacity="0.43">
<path d="M104.414 312.601C104.686 312.493 104.935 312.336 105.149 312.137C125.606 295.123 133.754 260.903 134.083 259.473C134.372 258.682 134.344 257.81 134.005 257.039C133.666 256.268 133.042 255.658 132.264 255.335C130.793 255.007 129.244 256.321 128.799 258.255C128.683 258.719 120.922 291.121 102.575 306.298C101.897 306.909 101.422 307.712 101.214 308.6C101.007 309.489 101.076 310.419 101.414 311.267C101.512 311.559 101.669 311.828 101.877 312.057C102.085 312.285 102.337 312.468 102.62 312.593C102.902 312.719 103.207 312.784 103.516 312.786C103.825 312.787 104.13 312.724 104.414 312.601Z" fill="#3C9FD7"/>
</g>
<g opacity="0.43">
<path d="M75.8087 297.559C77.2797 296.945 78.6864 296.187 80.0085 295.297C80.7365 294.747 81.2773 293.986 81.5578 293.118C81.8382 292.25 81.8446 291.317 81.5761 290.445C81.5016 290.067 81.3327 289.715 81.0851 289.42C80.8375 289.125 80.5192 288.897 80.1599 288.759C79.8007 288.62 79.4121 288.574 79.0303 288.625C78.6485 288.677 78.2859 288.824 77.9763 289.053C75.2372 291.03 71.9296 292.064 68.5509 292.002C65.1723 291.939 61.9055 290.782 59.2419 288.705C58.0419 287.699 56.3001 288.241 55.3711 289.923C54.8977 290.673 54.6831 291.557 54.76 292.44C54.8369 293.323 55.201 294.157 55.7969 294.814C58.5788 297.024 61.9048 298.445 65.426 298.928C68.9471 299.411 72.5335 298.938 75.8087 297.559Z" fill="#3C9FD7"/>
</g>
</g>
<defs>
<linearGradient id="paint0_linear_158_100" x1="109.832" y1="278.076" x2="597.354" y2="475.499" gradientUnits="userSpaceOnUse">
<stop offset="0.01"/>
<stop offset="0.13" stop-opacity="0.69"/>
<stop offset="0.25" stop-opacity="0.32"/>
<stop offset="1" stop-opacity="0"/>
</linearGradient>
<linearGradient id="paint1_linear_158_100" x1="184.093" y1="267.399" x2="220.342" y2="200.629" gradientUnits="userSpaceOnUse">
<stop offset="0.01"/>
<stop offset="0.13" stop-opacity="0.69"/>
<stop offset="0.25" stop-opacity="0.32"/>
<stop offset="1" stop-opacity="0"/>
</linearGradient>
<linearGradient id="paint2_linear_158_100" x1="331.607" y1="305.061" x2="100.324" y2="367.107" gradientUnits="userSpaceOnUse">
<stop offset="0.01"/>
<stop offset="0.13" stop-opacity="0.69"/>
<stop offset="0.25" stop-opacity="0.32"/>
<stop offset="1" stop-opacity="0"/>
</linearGradient>
<linearGradient id="paint3_linear_158_100" x1="384.23" y1="331.915" x2="-37.8633" y2="251.188" gradientUnits="userSpaceOnUse">
<stop offset="0.01"/>
<stop offset="0.13" stop-opacity="0.69"/>
<stop offset="0.25" stop-opacity="0.32"/>
<stop offset="1" stop-opacity="0"/>
</linearGradient>
<linearGradient id="paint4_linear_158_100" x1="218.252" y1="307.748" x2="281.117" y2="236.942" gradientUnits="userSpaceOnUse">
<stop offset="0.01"/>
<stop offset="0.13" stop-opacity="0.69"/>
<stop offset="0.25" stop-opacity="0.32"/>
<stop offset="1" stop-opacity="0"/>
</linearGradient>
<clipPath id="clip0_158_100">
<rect width="388" height="536" fill="white"/>
</clipPath>
</defs>
</svg>
