<svg width="526" height="454" viewBox="0 0 526 454" fill="none" xmlns="http://www.w3.org/2000/svg">
<g clip-path="url(#clip0_143_210)">
<path d="M176.69 468.858C175.51 468.858 174.313 469.014 173.22 469.118C150.264 470.854 126.943 473.058 104.23 470.281C98.9743 469.664 93.7597 468.737 88.6134 467.504C85.9644 466.88 83.3443 466.151 80.7531 465.318C78.428 391.279 141.987 293.221 149.726 281.454L173.55 282.46L248.838 285.636C180.768 350.268 174.382 428.003 176.69 468.858Z" fill="#68E1FD"/>
<path d="M176.69 468.858C175.51 468.858 174.313 469.014 173.22 469.118C150.264 470.854 126.943 473.058 104.23 470.281C98.9743 469.664 93.7597 468.737 88.6134 467.504C85.9644 466.88 83.3443 466.151 80.7531 465.318C78.428 391.279 141.987 293.221 149.726 281.454L173.55 282.46L248.838 285.636C180.768 350.268 174.382 428.003 176.69 468.858Z" fill="url(#paint0_linear_143_210)"/>
<path d="M175.753 280.308C174.99 281.02 174.244 281.731 173.515 282.46C103.692 350.494 100.846 432.151 104.143 470.247C98.8875 469.629 93.6729 468.702 88.5267 467.47C85.8776 466.845 83.2575 466.116 80.6664 465.283C78.428 391.279 141.987 293.221 149.726 281.454L150.507 280.308H175.753Z" fill="#68E1FD"/>
<path d="M349.391 123.137C346.545 128.344 347.43 134.626 346.181 140.371C345.81 141.997 345.334 143.597 344.758 145.161C342.572 151.444 339.813 157.9 334.555 161.979C332.937 162.915 331.6 164.27 330.686 165.901C330.421 166.747 330.363 167.644 330.517 168.517C330.671 169.389 331.032 170.213 331.571 170.917C332.674 172.272 333.986 173.444 335.457 174.388C335.162 177.39 335.249 180.948 334.937 183.933C334.26 190.546 333.826 197.991 338.199 203.024C341.669 206.895 347.014 208.231 352.08 208.821C357.147 209.411 362.491 209.724 367.037 212.292C376.615 217.62 379.183 231.158 388.709 236.59C391.547 238.09 394.656 239.005 397.854 239.28C404.602 240.237 411.479 238.97 417.444 235.67C423.257 232.199 442.274 226.541 437.12 222.15C431.499 217.377 422.875 203.84 418.849 196.638C414.368 188.631 411.32 179.903 409.844 170.847C408.629 163.298 408.508 155.627 407.38 148.077C406.252 140.527 403.909 132.891 399.068 127.025C391.763 118.347 379.825 114.876 368.477 114.234C365.309 113.915 362.109 114.15 359.021 114.928C357.473 115.319 356.023 116.025 354.76 117.002C353.498 117.978 352.45 119.204 351.681 120.603" fill="#F9BA9F"/>
<path d="M461.204 158.612C460.754 162.624 459.646 166.535 457.925 170.188C456.936 172.649 455.52 174.917 453.743 176.887C450.273 179.976 450.169 185.2 448.035 189.279C446.576 191.884 444.555 194.132 442.118 195.857C437.24 199.457 431.551 201.802 425.554 202.683C419.556 203.563 413.433 202.954 407.727 200.907L405.992 200.247C400.895 197.868 396.062 194.959 391.572 191.57C391.291 191.384 391.063 191.126 390.913 190.823C390.618 190.094 391.243 189.366 391.798 188.793C393.631 186.91 395.075 184.684 396.045 182.241C397.016 179.799 397.495 177.189 397.455 174.561C397.543 172.315 396.85 170.106 395.494 168.313C394.791 167.446 393.814 166.842 392.723 166.603C391.632 166.363 390.492 166.501 389.49 166.994C387.755 167.984 386.02 170.344 384.528 169.077C384.089 168.598 383.821 167.988 383.764 167.341C383.266 163.478 382.245 159.7 380.728 156.112C378.687 152.647 376.176 149.482 373.266 146.706C366.504 139.252 361.07 130.693 357.199 121.402C356.967 120.565 356.452 119.835 355.741 119.336C355.076 119.044 354.342 118.948 353.624 119.059C350.461 119.244 347.288 119.186 344.133 118.885C342.524 118.884 340.961 118.347 339.691 117.358C337.54 115.292 338.511 111.613 340.246 109.201C344.185 103.664 350.761 100.766 357.025 98.1452C355.412 97.0865 352.861 94.7609 351.247 93.7022C350.69 93.4108 350.24 92.9486 349.963 92.3832C349.616 91.3071 350.657 90.2658 351.698 89.7452C353.513 88.8253 355.568 88.4918 357.581 88.7906C357.286 84.0005 352.15 79.5575 354.11 75.1839C355.446 72.3029 359.316 71.5566 362.404 72.3203C365.493 73.0839 368.165 74.9757 371.167 75.9823C371.844 73.8823 369.97 71.6955 370.317 69.5087C370.503 68.7253 370.906 68.0103 371.48 67.4455C372.054 66.8807 372.775 66.489 373.561 66.3153C375.161 66.0001 376.815 66.0956 378.368 66.593C382.002 67.5663 385.371 69.3459 388.224 71.7996C389.891 73.5621 391.774 75.1073 393.828 76.3988C397.888 78.4988 402.764 77.336 407.328 77.336C412.707 77.5525 418.001 78.7586 422.944 80.8939C426.225 82.1255 429.434 83.5392 432.557 85.1286C436.722 87.2021 440.611 89.791 444.13 92.8344C453.014 100.644 458.567 111.769 461.014 123.328C463.194 134.982 463.259 146.934 461.204 158.612V158.612Z" fill="#DA75AF"/>
<path d="M57.1029 103.074L65.9522 93.8063L276.271 103.074L325.168 276.351L316.319 285.619H96.7166L57.1029 103.074Z" fill="#68E1FD"/>
<path d="M57.1029 103.074L65.9522 93.8063L276.271 103.074L325.168 276.351L316.319 285.619H96.7166L57.1029 103.074Z" fill="url(#paint1_linear_143_210)"/>
<path d="M65.9522 93.8063H285.12L325.168 276.351H105.566L65.9522 93.8063Z" fill="#68E1FD"/>
<path d="M74.8016 100.037H279.013L316.319 270.121H111.708L74.8016 100.037Z" fill="white"/>
<path d="M234.193 340.185C234.049 341.412 233.601 342.583 232.888 343.592C232.176 344.602 231.223 345.417 230.116 345.964C226.923 347.838 223.019 347.942 219.306 347.995C216.731 348.222 214.137 347.884 211.706 347.005C209.631 345.887 207.77 344.412 206.205 342.649C197.182 333.971 185.192 327.394 180.716 315.748C178.547 310.09 178.443 303.894 178.373 297.872C178.373 291.468 178.373 284.439 182.624 279.631C185.939 275.831 191.422 273.904 193.573 269.34C189.951 267.301 186.663 264.72 183.822 261.686C182.421 260.152 181.382 258.324 180.781 256.336C180.181 254.347 180.034 252.249 180.351 250.196C185.378 251.872 190.194 254.126 194.701 256.913C202.923 261.996 210.04 268.678 215.632 276.563C221.223 284.449 225.175 293.377 227.253 302.818C228.988 311.166 229.161 319.844 231.452 328.088C232.476 331.906 234.645 336.349 234.193 340.185Z" fill="#F9BA9F"/>
<path d="M234.193 340.185C233.368 340.553 232.629 341.091 232.024 341.764C229.682 345.235 223.904 344.35 220.954 341.313C218.004 338.276 216.859 333.989 214.846 330.257C209.814 320.799 198.918 313.683 198.952 302.974C198.952 294.696 205.893 287.355 205.268 279.215C204.921 274.911 202.579 271.405 200.063 268.142C197.725 264.692 195.929 260.906 194.736 256.913C202.957 261.996 210.075 268.678 215.666 276.563C221.258 284.449 225.21 293.377 227.287 302.818C229.023 311.166 229.196 319.844 231.487 328.088C232.476 331.906 234.645 336.349 234.193 340.185Z" fill="url(#paint2_linear_143_210)"/>
<path d="M455.478 452.613C453.344 463.287 450.151 474.325 443.87 483.003C442.968 483.124 442.135 483.246 441.163 483.333C435.75 483.992 430.313 484.461 424.853 484.738C403.804 485.554 382.724 484.544 361.849 481.718C338.529 478.837 315.347 474.672 292.061 471.479C293.15 470.247 294.399 469.168 295.774 468.268C302.735 463.091 308.473 456.446 312.581 448.804C316.689 441.162 319.067 432.71 319.546 424.046C318.165 423.125 316.555 422.608 314.896 422.554C310.488 422.137 304.814 423.092 301.57 422.693C274.605 419.308 206.743 353.132 206.743 353.132L240.457 336.262L290.621 353.132C290.621 353.132 344.567 268.402 366.482 244.087C388.397 219.772 427.924 219.269 427.924 219.269C432.66 219.092 437.394 219.678 441.944 221.005C468.804 228.867 482.651 261.443 484.456 289.021C488.082 343.274 465.959 400.287 455.478 452.613Z" fill="#394955"/>
<path d="M461.204 158.612C460.754 162.624 459.646 166.535 457.925 170.188C456.936 172.649 455.52 174.917 453.743 176.887C450.273 179.976 450.169 185.2 448.035 189.279C446.576 191.884 444.555 194.132 442.118 195.857C437.24 199.457 431.551 201.802 425.554 202.683C419.556 203.563 413.433 202.954 407.727 200.907L405.992 200.247C405.245 199.077 404.661 197.81 404.256 196.481L411.197 196.238C411.064 193.805 410.081 191.496 408.421 189.713L424.228 189.4C426.388 189.656 428.571 189.191 430.438 188.077C432.306 186.962 433.752 185.261 434.552 183.239C436.947 179.525 439.428 175.464 439.029 171.09C438.624 168.517 437.722 166.047 436.374 163.818C432.904 157.032 429.434 149.934 428.462 142.419C427.49 134.904 429.729 126.417 435.784 121.731C437.062 120.94 438.19 119.929 439.116 118.746C439.891 117.321 440.16 115.675 439.879 114.078C439.081 106.823 433.442 101.182 428.132 96.1493L416.385 84.955C417.704 86.222 423.708 86.3782 425.668 87.003C428.97 88.1346 432.208 89.444 435.368 90.9253C434.882 89.4848 433.633 87.4542 432.54 85.1286C436.705 87.2021 440.593 89.791 444.113 92.8344C452.997 100.644 458.55 111.769 460.996 123.328C463.182 134.981 463.253 146.933 461.204 158.612V158.612Z" fill="#AC5D8A"/>
<path d="M455.478 452.613C453.344 463.287 450.151 474.325 443.87 483.003C442.968 483.124 442.135 483.246 441.163 483.333C416.993 485.745 394.314 487.758 370.299 482.5C366.569 481.684 362.162 480.052 361.502 476.286C361.363 474.109 361.922 471.945 363.098 470.108C379.548 436.889 390.08 398.36 389.629 361.115C380.676 359.987 369.623 377.325 363.098 383.244L339.101 405.007C328.69 414.379 316.718 424.376 302.819 423.283C294.629 422.64 287.307 418.18 280.262 413.841L255.571 398.36C248.3 393.83 240.405 388.468 238.497 380.102C250.105 380.987 260.273 387.721 270.684 392.911C281.095 398.1 293.64 401.901 304.103 396.816C311.634 393.154 316.423 385.673 320.899 378.61C350.301 332.124 382.538 287.494 417.426 244.972C425.842 234.715 427.247 219.425 441.996 221.074C468.857 228.936 482.703 261.512 484.508 289.09C488.082 343.274 465.959 400.287 455.478 452.613Z" fill="url(#paint3_linear_143_210)"/>
<path opacity="0.18" d="M125.121 133.672C126.947 131.324 129.24 129.38 131.854 127.962C134.841 126.177 138.127 124.948 141.553 124.335C145.972 123.767 150.463 124.312 154.617 125.922C158.772 127.531 162.459 130.154 165.342 133.55C171.059 140.499 174.023 149.307 173.671 158.299C174.838 157.903 176.107 157.926 177.259 158.363C178.411 158.8 179.376 159.624 179.987 160.694C181.128 162.893 181.552 165.393 181.202 167.845C181.167 169.9 180.567 171.906 179.466 173.641C178.898 174.496 178.079 175.154 177.122 175.523C176.165 175.893 175.117 175.957 174.122 175.707C174.715 178.234 174.73 180.862 174.165 183.395C173.6 185.929 172.47 188.302 170.86 190.337C169.507 192.073 167.754 193.618 167.39 195.752C167.043 198.425 169.125 200.855 171.624 202.018C174.155 202.929 176.74 203.689 179.362 204.291C185.038 206.47 189.705 210.674 192.463 216.093C195.177 221.472 197.211 227.168 198.519 233.049C198.831 234.229 199.074 235.67 198.171 236.52C197.524 236.987 196.728 237.203 195.933 237.128L127.203 239.263C126.423 231.296 125.971 222.289 131.333 216.336C135.48 211.754 142.004 210.348 148.077 209.168C148.003 205.657 147.181 202.201 145.666 199.033C145.272 198.044 144.618 197.181 143.774 196.533C142.855 196.058 141.865 195.736 140.842 195.579C134.092 193.843 130.431 186.571 128.696 179.82C128.474 178.597 128.04 177.422 127.412 176.349C126.418 175.129 125.16 174.149 123.733 173.485C115.352 168.678 113.6 163.315 119.638 156.13C125.069 149.934 119.846 140.944 125.121 133.672Z" fill="#68E1FD"/>
<path opacity="0.32" d="M-0.487061 38.963L28.4034 182.024H114.693L90.2445 38.963H-0.487061Z" fill="#68E1FD"/>
<path opacity="0.32" d="M25.9395 233.848L54.8125 376.926H141.102L116.654 233.848H25.9395Z" fill="#68E1FD"/>
<path opacity="0.32" d="M201.954 38.963L230.827 182.024H317.117L292.668 38.963H201.954Z" fill="#68E1FD"/>
<path d="M211.098 24.2803L239.971 167.341H326.261L301.813 24.2803H211.098Z" fill="url(#paint4_linear_143_210)"/>
<path d="M15.0947 42.868L40.6015 169.233H116.81L95.2244 42.868H15.0947Z" fill="url(#paint5_linear_143_210)"/>
<path d="M32.3942 227.565L61.2673 370.626H147.557L123.108 227.565H32.3942Z" fill="url(#paint6_linear_143_210)"/>
</g>
<defs>
<linearGradient id="paint0_linear_143_210" x1="77.9942" y1="184.68" x2="294.31" y2="660.183" gradientUnits="userSpaceOnUse">
<stop offset="0.01"/>
<stop offset="0.13" stop-opacity="0.69"/>
<stop offset="0.25" stop-opacity="0.32"/>
<stop offset="1" stop-opacity="0"/>
</linearGradient>
<linearGradient id="paint1_linear_143_210" x1="229.699" y1="131.294" x2="28.1499" y2="436.484" gradientUnits="userSpaceOnUse">
<stop offset="0.01"/>
<stop offset="0.13" stop-opacity="0.69"/>
<stop offset="0.25" stop-opacity="0.32"/>
<stop offset="1" stop-opacity="0"/>
</linearGradient>
<linearGradient id="paint2_linear_143_210" x1="265.131" y1="269.93" x2="136.229" y2="343.822" gradientUnits="userSpaceOnUse">
<stop offset="0.01"/>
<stop offset="0.13" stop-opacity="0.69"/>
<stop offset="0.25" stop-opacity="0.32"/>
<stop offset="1" stop-opacity="0"/>
</linearGradient>
<linearGradient id="paint3_linear_143_210" x1="957.478" y1="295.338" x2="-275.222" y2="430.547" gradientUnits="userSpaceOnUse">
<stop offset="0.01"/>
<stop offset="0.13" stop-opacity="0.69"/>
<stop offset="0.25" stop-opacity="0.32"/>
<stop offset="1" stop-opacity="0"/>
</linearGradient>
<linearGradient id="paint4_linear_143_210" x1="190.19" y1="36.325" x2="991.144" y2="626.38" gradientUnits="userSpaceOnUse">
<stop offset="0.01" stop-color="white"/>
<stop offset="0.13" stop-color="white" stop-opacity="0.69"/>
<stop offset="0.15" stop-color="white" stop-opacity="0.61"/>
<stop offset="0.2" stop-color="white" stop-opacity="0.47"/>
<stop offset="0.25" stop-color="white" stop-opacity="0.34"/>
<stop offset="0.3" stop-color="white" stop-opacity="0.23"/>
<stop offset="0.36" stop-color="white" stop-opacity="0.15"/>
<stop offset="0.44" stop-color="white" stop-opacity="0.08"/>
<stop offset="0.52" stop-color="white" stop-opacity="0.03"/>
<stop offset="0.65" stop-color="white" stop-opacity="0.01"/>
<stop offset="1" stop-color="white" stop-opacity="0"/>
</linearGradient>
<linearGradient id="paint5_linear_143_210" x1="-3.3848" y1="53.5069" x2="704.134" y2="574.732" gradientUnits="userSpaceOnUse">
<stop offset="0.01" stop-color="white"/>
<stop offset="0.13" stop-color="white" stop-opacity="0.69"/>
<stop offset="0.15" stop-color="white" stop-opacity="0.61"/>
<stop offset="0.2" stop-color="white" stop-opacity="0.47"/>
<stop offset="0.25" stop-color="white" stop-opacity="0.34"/>
<stop offset="0.3" stop-color="white" stop-opacity="0.23"/>
<stop offset="0.36" stop-color="white" stop-opacity="0.15"/>
<stop offset="0.44" stop-color="white" stop-opacity="0.08"/>
<stop offset="0.52" stop-color="white" stop-opacity="0.03"/>
<stop offset="0.65" stop-color="white" stop-opacity="0.01"/>
<stop offset="1" stop-color="white" stop-opacity="0"/>
</linearGradient>
<linearGradient id="paint6_linear_143_210" x1="11.4855" y1="239.61" x2="812.44" y2="829.664" gradientUnits="userSpaceOnUse">
<stop offset="0.01" stop-color="white"/>
<stop offset="0.13" stop-color="white" stop-opacity="0.69"/>
<stop offset="0.15" stop-color="white" stop-opacity="0.61"/>
<stop offset="0.2" stop-color="white" stop-opacity="0.47"/>
<stop offset="0.25" stop-color="white" stop-opacity="0.34"/>
<stop offset="0.3" stop-color="white" stop-opacity="0.23"/>
<stop offset="0.36" stop-color="white" stop-opacity="0.15"/>
<stop offset="0.44" stop-color="white" stop-opacity="0.08"/>
<stop offset="0.52" stop-color="white" stop-opacity="0.03"/>
<stop offset="0.65" stop-color="white" stop-opacity="0.01"/>
<stop offset="1" stop-color="white" stop-opacity="0"/>
</linearGradient>
<clipPath id="clip0_143_210">
<rect width="526" height="454" fill="white"/>
</clipPath>
</defs>
</svg>
