<svg width="919" height="919" viewBox="0 0 919 919" fill="none" xmlns="http://www.w3.org/2000/svg">
<g clip-path="url(#clip0_725_81)">
<path d="M459.5 861.562C352.866 861.562 250.6 819.202 175.199 743.801C99.7975 668.4 57.4375 566.134 57.4375 459.5C57.4375 352.866 99.7975 250.6 175.199 175.199C250.6 99.7975 352.866 57.4375 459.5 57.4375C566.134 57.4375 668.4 99.7975 743.801 175.199C819.202 250.6 861.562 352.866 861.562 459.5C861.562 566.134 819.202 668.4 743.801 743.801C668.4 819.202 566.134 861.562 459.5 861.562ZM459.5 919C581.367 919 698.243 870.589 784.416 784.416C870.589 698.243 919 581.367 919 459.5C919 337.633 870.589 220.757 784.416 134.584C698.243 48.4115 581.367 0 459.5 0C337.633 0 220.757 48.4115 134.584 134.584C48.4115 220.757 0 337.633 0 459.5C0 581.367 48.4115 698.243 134.584 784.416C220.757 870.589 337.633 919 459.5 919V919Z" fill="#3C9FD7"/>
<path d="M301.834 332.333C301.755 334.188 302.057 336.04 302.72 337.774C303.384 339.508 304.395 341.088 305.691 342.416C306.988 343.745 308.542 344.795 310.26 345.501C311.977 346.206 313.82 346.553 315.676 346.52H363.062C370.989 346.52 377.307 340.03 378.341 332.161C383.51 294.482 409.357 267.027 455.422 267.027C494.824 267.027 530.895 286.728 530.895 334.114C530.895 370.587 509.413 387.359 475.468 412.861C436.812 440.948 406.198 473.745 408.381 526.989L408.553 539.453C408.613 543.221 410.153 546.815 412.839 549.458C415.525 552.102 419.143 553.583 422.912 553.583H469.494C473.302 553.583 476.955 552.07 479.648 549.377C482.341 546.684 483.853 543.032 483.853 539.223V533.192C483.853 491.952 499.534 479.948 541.865 447.84C576.845 421.247 613.318 391.724 613.318 329.749C613.318 242.961 540.027 201.031 459.787 201.031C387.014 201.031 307.291 234.919 301.834 332.333V332.333ZM391.264 663.346C391.264 693.96 415.675 716.59 449.276 716.59C484.255 716.59 508.322 693.96 508.322 663.346C508.322 631.64 484.198 609.354 449.219 609.354C415.675 609.354 391.264 631.64 391.264 663.346Z" fill="#3C9FD7"/>
</g>
<defs>
<clipPath id="clip0_725_81">
<rect width="919" height="919" fill="white"/>
</clipPath>
</defs>
</svg>
